<svg width="35" height="35" viewBox="0 0 35 35" fill="none" xmlns="http://www.w3.org/2000/svg">
<path d="M2.9165 30.625C2.9165 31.0118 3.07015 31.3827 3.34364 31.6562C3.61713 31.9297 3.98806 32.0833 4.37484 32.0833H30.6248C31.0116 32.0833 31.3825 31.9297 31.656 31.6562C31.9295 31.3827 32.0832 31.0118 32.0832 30.625V11.6667C32.0831 11.2799 31.9294 10.909 31.6559 10.6356L24.3642 3.34396C24.0908 3.07045 23.7199 2.91675 23.3332 2.91666H4.37484C3.98806 2.91666 3.61713 3.07031 3.34364 3.3438C3.07015 3.61729 2.9165 3.98822 2.9165 4.375V30.625ZM21.8748 29.1667H13.1248V21.875H21.8748V29.1667ZM5.83317 5.83333H22.7294L29.1665 12.2704V29.1667H24.7915V20.4167C24.7915 20.0299 24.6379 19.659 24.3644 19.3855C24.0909 19.112 23.7199 18.9583 23.3332 18.9583H11.6665C11.2797 18.9583 10.9088 19.112 10.6353 19.3855C10.3618 19.659 10.2082 20.0299 10.2082 20.4167V29.1667H5.83317V5.83333ZM10.2082 13.125C10.2082 12.7382 10.3618 12.3673 10.6353 12.0938C10.9088 11.8203 11.2797 11.6667 11.6665 11.6667H17.4998C17.8866 11.6667 18.2575 11.8203 18.531 12.0938C18.8045 12.3673 18.9582 12.7382 18.9582 13.125C18.9582 13.5118 18.8045 13.8827 18.531 14.1562C18.2575 14.4297 17.8866 14.5833 17.4998 14.5833H11.6665C11.2797 14.5833 10.9088 14.4297 10.6353 14.1562C10.3618 13.8827 10.2082 13.5118 10.2082 13.125Z" fill="white"/>
</svg>
